<svg width="40" height="40" viewBox="0 0 40 40" fill="none" xmlns="http://www.w3.org/2000/svg">
<circle cx="20" cy="20" r="20" fill="#E1DECE"/>
<path d="M23.4336 15.0505V13.6163C23.4336 13.492 23.2907 13.4233 23.1943 13.4994L14.8298 20.0325C14.7587 20.0877 14.7012 20.1585 14.6617 20.2394C14.6221 20.3203 14.6016 20.4091 14.6016 20.4991C14.6016 20.5892 14.6221 20.678 14.6617 20.7589C14.7012 20.8397 14.7587 20.9105 14.8298 20.9658L23.1943 27.4989C23.2926 27.575 23.4336 27.5063 23.4336 27.382V25.9477C23.4336 25.8568 23.3909 25.7696 23.3204 25.7139L16.6407 20.5001L23.3204 15.2843C23.3909 15.2287 23.4336 15.1415 23.4336 15.0505Z" fill="#171717"/>
</svg>
