<svg width="15" height="15" viewBox="0 0 15 15" fill="none" xmlns="http://www.w3.org/2000/svg">
<path d="M14.4691 11.5689L11.2014 8.64295C11.0469 8.50469 10.844 8.43095 10.6353 8.4373C10.4267 8.44365 10.2287 8.5296 10.0832 8.67699L8.15955 10.6253C7.69652 10.5382 6.76564 10.2524 5.80743 9.31112C4.84921 8.36666 4.55902 7.44753 4.473 6.9947L6.44972 5.09945C6.59957 4.95626 6.68697 4.76127 6.69342 4.55574C6.69987 4.35021 6.62487 4.15027 6.48429 3.99824L3.51398 0.780907C3.37334 0.628398 3.17787 0.53589 2.96908 0.52303C2.7603 0.510169 2.55464 0.57797 2.3958 0.712032L0.651401 2.18532C0.512421 2.32269 0.429468 2.50551 0.418279 2.69912C0.406221 2.89703 0.176314 7.58528 3.86769 11.2222C7.08799 14.3928 11.1218 14.6248 12.2328 14.6248C12.3951 14.6248 12.4948 14.62 12.5214 14.6184C12.7179 14.6076 12.9035 14.5256 13.0423 14.3881L14.5375 12.6694C14.6741 12.5134 14.7435 12.3111 14.7307 12.1055C14.7179 11.8999 14.6241 11.7073 14.4691 11.5689V11.5689Z" fill="#DCD7C0"/>
<path d="M14.4691 11.5689L11.2014 8.64295C11.0469 8.50469 10.844 8.43095 10.6353 8.4373C10.4267 8.44365 10.2287 8.5296 10.0832 8.67699L8.15955 10.6253C7.69652 10.5382 6.76564 10.2524 5.80743 9.31112C4.84921 8.36666 4.55902 7.44753 4.473 6.9947L6.44972 5.09945C6.59957 4.95626 6.68697 4.76127 6.69342 4.55574C6.69987 4.35021 6.62487 4.15027 6.48429 3.99824L3.51398 0.780907C3.37334 0.628398 3.17787 0.53589 2.96908 0.52303C2.7603 0.510169 2.55464 0.57797 2.3958 0.712032L0.651401 2.18532C0.512421 2.32269 0.429468 2.50551 0.418279 2.69912C0.406221 2.89703 0.176314 7.58528 3.86769 11.2222C7.08799 14.3928 11.1218 14.6248 12.2328 14.6248C12.3951 14.6248 12.4948 14.62 12.5214 14.6184C12.7179 14.6076 12.9035 14.5256 13.0423 14.3881L14.5375 12.6694C14.6741 12.5134 14.7435 12.3111 14.7307 12.1055C14.7179 11.8999 14.6241 11.7073 14.4691 11.5689V11.5689Z" fill="url(#paint0_linear_1_203)"/>
<defs>
<linearGradient id="paint0_linear_1_203" x1="5.0704" y1="0.52148" x2="10.0388" y2="2.063" gradientUnits="userSpaceOnUse">
<stop stop-color="#E0DEDE"/>
<stop offset="0.983598" stop-color="#A2A0A0"/>
</linearGradient>
</defs>
</svg>
